<svg xmlns="http://www.w3.org/2000/svg" viewBox="0 0 100 100"><rect width="100" height="100" fill="#2a1606"/>
    <defs><radialGradient id="db" cx="36%" cy="30%"><stop stop-color="#ffe08a"/><stop offset=".6" stop-color="#f7981d"/><stop offset="1" stop-color="#c85800"/></radialGradient></defs>
    <circle cx="50" cy="50" r="37" fill="url(#db)" stroke="#8f3c00" stroke-width="4"/>
    <ellipse cx="40" cy="36" rx="10" ry="6" fill="#fff" opacity=".5"/>
    <g fill="#d61f26">
      <path d="M50 33l3 6 6 1-4.5 4 1 6-5.5-3-5.5 3 1-6-4.5-4 6-1z"/>
      <path d="M36 52l2.4 4.8 5 .8-3.6 3.2.8 4.8-4.6-2.4-4.6 2.4.8-4.8-3.6-3.2 5-.8z"/>
      <path d="M64 52l2.4 4.8 5 .8-3.6 3.2.8 4.8-4.6-2.4-4.6 2.4.8-4.8-3.6-3.2 5-.8z"/>
      <path d="M50 60l2.4 4.8 5 .8-3.6 3.2.8 4.8-4.6-2.4-4.6 2.4.8-4.8-3.6-3.2 5-.8z"/>
    </g></svg>
